<svg width="48" height="45" viewBox="0 0 48 45" fill="none" xmlns="http://www.w3.org/2000/svg">
<path d="M9.80278 0.723607L0.552786 5.34861C0.214002 5.518 0 5.86426 0 6.24303V40.1542C0 40.5847 0.275429 40.9668 0.683771 41.1029L9.93377 44.1863C10.5813 44.4021 11.25 43.9201 11.25 43.2376V1.61803C11.25 0.874652 10.4677 0.391156 9.80278 0.723607Z" fill="#4A2DE2"/>
<path d="M27.2423 5.58538L17.9923 8.05204C17.5546 8.16878 17.25 8.56523 17.25 9.01828V34.881C17.25 35.3226 17.5397 35.7119 17.9627 35.8388L27.2126 38.6138C27.8543 38.8063 28.5 38.3258 28.5 37.656V6.55161C28.5 5.89458 27.8772 5.41608 27.2423 5.58538Z" fill="#4A2DE2"/>
<path fill-rule="evenodd" clip-rule="evenodd" d="M34.5 13C34.5 12.4477 34.9477 12 35.5 12H45.9476C46.7811 12 47.2488 12.9599 46.7351 13.6163L36.2875 26.966C35.7016 27.7146 34.5 27.3003 34.5 26.3497V13Z" fill="#4A2DE2"/>
</svg>
