<svg width="506" height="250" fill="none" xmlns="http://www.w3.org/2000/svg"><g clip-path="url(#clip0)"><path fill-rule="evenodd" clip-rule="evenodd" d="M223.385-24.369C101.158 46.2 59.142 203.006 129.71 325.233c70.568 122.227 227.374 164.244 349.601 93.676s164.244-227.375 93.676-349.602C502.419-52.92 345.612-94.936 223.385-24.368zm222.578 322.74l16.622 28.791-23.902 13.8-15.682-27.161-14.124 8.154 16.309 28.248-23.902 13.8-16.309-28.248-55.41 31.991-11.604-20.1 25.028-23.141-105.068-181.983-32.555 10.104-10.664-18.47 60.988-37.384 1.086-.627-17.877-30.965 23.902-13.8 17.878 30.965 14.124-8.155.543-.313-17.877-30.965 23.902-13.8 19.131 33.138c12.12-4.1 24.093-5.943 35.149-4.358 18.683 2.25 34.213 12.84 45.19 31.854 16.623 28.791 12.619 55.729-11.782 79.957 20.123-6.547 36.694-6.699 50.718-2.482 14.337 4.76 24.412 13.429 32.567 27.553 21.495 39.74 12.854 73.701-26.381 103.597zm-42.891-105.613c-13.542-.873-30.091 4.336-50.19 15.94l-24.989 14.427 47.359 82.028 35.31-20.386c32.594-18.818 41.677-40.721 26.623-66.797-9.096-15.753-20.885-24.882-34.113-25.212zm-36.277-75.389c6.586 11.408 7.572 23.152 2.644 34.689-4.614 12.08-14.997 21.696-31.753 32.819l-24.989 14.427-42.654-73.879 36.939-21.327c11.952-6.9 22.211-9.202 33.267-7.618 10.512 1.899 19.332 8.395 26.546 20.889z" fill="#FBD100"/></g><defs><clipPath id="clip0"><path fill="#fff" transform="rotate(-30 192.434 51.562)" d="M0 0h518.25v518.25H0z"/></clipPath></defs></svg>