<svg width="45" height="45" fill="none" xmlns="http://www.w3.org/2000/svg"><path fill-rule="evenodd" clip-rule="evenodd" d="M22.333.111C10.078.111.111 10.078.111 22.333s9.967 22.223 22.222 22.223 22.222-9.968 22.222-22.223c0-12.255-9.967-22.222-22.222-22.222zm2.726 33.933v2.886h-2.397v-2.723h-1.416v2.832h-2.397v-2.832h-5.555v-2.015l2.886-.654V13.292l-2.886-.654v-1.851l6.209-.164h.109V7.518h2.396v3.105H23.48V7.518h2.396v3.323c1.09.218 2.07.6 2.833 1.198 1.307.98 2.015 2.451 2.015 4.357 0 2.887-1.47 4.739-4.357 5.502 1.797.38 3.05 1.089 3.921 2.015.872.98 1.253 2.07 1.253 3.486-.109 3.921-2.233 6.1-6.482 6.645zm1.36-9.804c-.98-.654-2.451-.98-4.467-.98h-2.505v8.224h3.54c3.268 0 4.902-1.253 4.902-3.868 0-1.579-.49-2.777-1.47-3.376zm.544-7.244c0 1.143-.435 2.07-1.307 2.723-.871.708-2.07.98-3.812 1.09h-2.506V13.4h3.704c1.198 0 2.07.272 2.832.871.708.6 1.09 1.47 1.09 2.724z" fill="#CECECE"/></svg>