<svg xmlns="http://www.w3.org/2000/svg" width="475.074" height="475.074"><path d="M395.655 249.236c-11.037-14.272-27.692-24.075-49.964-29.403 28.362-14.467 40.826-39.021 37.404-73.666-1.144-12.563-4.616-23.451-10.424-32.68-5.812-9.231-13.655-16.652-23.559-22.266-9.896-5.621-20.659-9.9-32.264-12.85-11.608-2.95-24.935-5.092-39.972-6.423V0h-43.964v69.949c-7.613 0-19.223.19-34.829.571V0h-43.97v71.948c-6.283.191-15.513.288-27.694.288l-60.526-.288v46.824h31.689c14.466 0 22.936 6.473 25.41 19.414v81.942c1.906 0 3.427.098 4.57.288h-4.57v114.769c-1.521 9.705-7.04 14.562-16.558 14.562H74.747l-8.852 52.249h57.102c3.617 0 8.848.048 15.703.134 6.851.096 11.988.144 15.415.144v72.803h43.977V403.13c7.992.195 19.602.288 34.829.288v71.659h43.965v-72.803c15.611-.76 29.457-2.18 41.538-4.281 12.087-2.101 23.653-5.379 34.69-9.855 11.036-4.47 20.266-10.041 27.688-16.703 7.426-6.656 13.559-15.13 18.421-25.41 4.846-10.28 7.943-22.176 9.271-35.693 2.485-26.45-1.8-46.818-12.839-61.096zM198.938 121.904c1.333 0 5.092-.048 11.278-.144 6.189-.098 11.326-.192 15.418-.288 4.093-.094 9.613.144 16.563.715 6.947.571 12.799 1.334 17.556 2.284s9.996 2.521 15.701 4.71c5.715 2.187 10.28 4.853 13.702 7.993 3.429 3.14 6.331 7.139 8.706 11.993 2.382 4.853 3.572 10.42 3.572 16.7 0 5.33-.855 10.185-2.566 14.565-1.708 4.377-4.284 8.042-7.706 10.992-3.423 2.951-6.951 5.523-10.568 7.71-3.613 2.187-8.233 3.949-13.846 5.28-5.612 1.333-10.513 2.38-14.698 3.14-4.188.762-9.421 1.287-15.703 1.571-6.283.284-11.043.478-14.277.572-3.237.094-7.661.094-13.278 0-5.618-.094-8.897-.144-9.851-.144v-87.65h-.003zm120.06 194.427c-1.813 4.38-4.141 8.189-6.994 11.427-2.858 3.23-6.619 6.088-11.28 8.559-4.66 2.478-9.185 4.473-13.559 5.996-4.38 1.529-9.664 2.854-15.844 4-6.194 1.143-11.615 1.947-16.283 2.426-4.661.477-10.226.856-16.7 1.144-6.469.28-11.516.425-15.131.425-3.617 0-8.186-.052-13.706-.145-5.523-.089-9.041-.137-10.565-.137v-96.505c1.521 0 6.042-.093 13.562-.287 7.521-.192 13.656-.281 18.415-.281 4.758 0 11.327.281 19.705.856 8.37.567 15.413 1.42 21.128 2.562 5.708 1.144 11.937 2.902 18.699 5.284 6.755 2.378 12.23 5.28 16.419 8.706 4.188 3.432 7.707 7.803 10.561 13.134 2.861 5.328 4.288 11.42 4.288 18.274-.001 5.335-.904 10.181-2.715 14.562z"/></svg>