<svg width="16" height="16" fill="none" xmlns="http://www.w3.org/2000/svg"><path fill-rule="evenodd" clip-rule="evenodd" d="M1.895 1.955a.57.57 0 01.402-.163H8.71c.156 0 .3.061.402.163a.51.51 0 01.153.362v.71c0 .495.39.896.87.896a.884.884 0 00.872-.896v-.71c0-.624-.249-1.216-.682-1.648A2.287 2.287 0 008.71 0H2.297c-.6 0-1.182.238-1.615.669A2.327 2.327 0 000 2.317V8.71c0 .624.249 1.216.682 1.648a2.287 2.287 0 001.615.669h.712a.884.884 0 00.872-.896.884.884 0 00-.872-.895h-.712a.57.57 0 01-.402-.164.51.51 0 01-.153-.362V2.317c0-.13.052-.261.153-.362zm4.84 5.335a.54.54 0 01.554-.526h6.414a.54.54 0 01.555.526v6.393a.54.54 0 01-.555.526H7.29a.54.54 0 01-.555-.526V7.29zm.554-2.317A2.306 2.306 0 004.992 7.29v6.393A2.306 2.306 0 007.289 16h6.414A2.306 2.306 0 0016 13.683V7.29a2.306 2.306 0 00-2.297-2.317H7.29z" fill="#B9B9B9"/></svg>