<svg width="12" height="11" fill="none" xmlns="http://www.w3.org/2000/svg"><path fill-rule="evenodd" clip-rule="evenodd" d="M10.809 8.8V6.41a.545.545 0 00-.54-.543.545.545 0 00-.54.542v2.028A1.45 1.45 0 018.29 9.9H2.52A1.45 1.45 0 011.08 8.437V2.563A1.45 1.45 0 012.519 1.1H8.84h-.013v-.002A.543.543 0 009.312.55.544.544 0 008.84.003V0H2.16C.968 0 0 .986 0 2.2v6.6C0 10.015.969 11 2.161 11h6.487c1.193 0 2.161-.986 2.161-2.2zm-.485-7.143a.712.712 0 011.02-.002.742.742 0 01-.001 1.039L6.25 7.877a.713.713 0 01-1.02 0 .742.742 0 010-1.037l5.094-5.183z" fill="#B9B9B9"/></svg>