<svg width="241" height="206" fill="none" xmlns="http://www.w3.org/2000/svg"><g clip-path="url(#clip0)" fill="#BFBFBF"><path d="M82.338 206.019H28.841c-17.504 0-28.503-10.807-28.597-28.117-.132-26.492-.225-52.985-.282-79.477 0-15.71 11.676-27.135 27.65-27.303 6.523 0 6.41 0 6.57-6.484.253-9.357-.535-18.883 1.295-27.893C39.982 14.635 60.76-.505 83.98.066c21.859.533 41.681 17.104 45.238 38.906 1.417 8.664.938 17.675.938 26.526 0 4.164 1.164 5.287 5.566 5.614 15.233.777 29.095 12.164 28.541 28.717-.835 26.199-.206 52.398-.234 78.541 0 16.103-11.526 27.565-27.791 27.621-17.945.028-35.918.028-53.9.028zm-.131-127.253c-17.973 0-35.946-.084-53.92 0-10.69.066-18.498 6.71-19.765 16.843-.507 3.995-.188 8.093-.188 12.163v69.653c0 11.874 6.354 19.125 18.16 20.005 6.815.514 13.704 0 20.555 0 29.095.168 58.124.439 87.182.542 14.237 0 22.009-7.644 21.999-21.464 0-25.395-.044-50.792-.131-76.193 0-14.1-7.555-21.52-21.812-21.52-17.369-.02-34.73-.029-52.08-.029zm-.3-7.728c11.722 0 23.463.093 35.186-.113 1.53 0 4.336-1.562 4.364-2.451.263-9.357 1.051-18.826-.178-28.07-2.272-16.843-18.537-31.187-34.557-31.936-21.465-.991-38.565 9.788-42.63 28.632-2.14 9.89-1.417 20.389-1.876 30.625-.141 3.135 2.186 3.275 4.514 3.266l35.177.047zM209.859 190.327c-3.557-.159-3.754 1.32-4.036 4.95-.187 2.171 0 4.94-.619 6.943-.507 1.647-1.258 3.537-3.961 3.537a4.552 4.552 0 01-2.563-.968 4.523 4.523 0 01-1.538-2.26 46.24 46.24 0 01-.789-10.639c.113-16.365.441-32.749.517-49.086.103-19.331-.057-38.672.084-58.012 0-4.22-.938-6.148-5.697-7.093-17.86-3.612-31.075-20.903-30.568-39.168.459-17.993 14.5-34.246 32.333-37.427 20.873-3.743 41.023 8.3 46.542 27.743a39.254 39.254 0 01-4.225 30.849 39.404 39.404 0 01-10.818 11.676 39.534 39.534 0 01-14.568 6.458c-3.933.852-5.096 2.433-5.078 6.194.107 23.236.107 46.469 0 69.699 0 3.743 1.587 4.613 4.975 4.679 3.238.075 6.372-.543 9.338.14.219.05.432.119.638.206.739.314 1.373.83 1.829 1.488a4.216 4.216 0 01.183 4.517 4.232 4.232 0 01-1.702 1.63 3.72 3.72 0 01-.807.271c-3.454.693-7.133.309-10.718.188a3.515 3.515 0 00-2.61.985 3.518 3.518 0 00-1.069 2.57c.178 14.775-1.943 11.724 15.889 12.445 4.299.168 8.372-.281 12.558-.159 3.491.103 7.03.243 6.927 4.098-.085 3.191-2.816 3.621-5.566 3.593-4.242-.047-20.826.131-24.881-.047zM169.042 39.149a31.322 31.322 0 002.387 12.167 31.418 31.418 0 006.922 10.3 31.534 31.534 0 0010.38 6.828 31.601 31.601 0 0012.221 2.294c17.26 0 31.911-14.42 31.704-31.467-.216-18.957-16.959-30.878-31.591-31-17.973-.168-32.812 15.477-32.023 30.878z"/><path d="M82.123 122.294c7.771 0 15.092 5.277 16.894 12.248a16.983 16.983 0 01-.81 11.438 17.054 17.054 0 01-7.9 8.333c-3.379 1.693-4.496 3.696-4.214 7.205.234 2.938 0 5.904.047 8.86.056 2.677-.826 4.744-3.754 4.875-3.313.15-4.149-2.18-4.186-4.959-.047-3.265-.15-6.55 0-9.796.122-3.004-.939-4.726-3.839-6.064-7.142-3.303-11.094-11.228-9.48-17.955 2.16-8.945 8.523-14.157 17.242-14.185zm9.329 16.842a9.342 9.342 0 00-2.981-6.403 9.4 9.4 0 00-6.62-2.505 9.055 9.055 0 00-6.295 2.844 8.98 8.98 0 00.418 12.723 9.056 9.056 0 006.468 2.427c4.9-.141 9.141-4.417 9.01-9.049v-.037z"/></g><defs><clipPath id="clip0"><path fill="#fff" d="M0 0h241v206H0z"/></clipPath></defs></svg>