<svg width="134" height="149" fill="none" xmlns="http://www.w3.org/2000/svg"><path fill="#6144E5" d="M68 36h16v8H68z"/><path d="M122.4 135H29.6c-6.38 0-11.6-4.871-11.6-10.824V53.824C18 47.87 23.22 43 29.6 43h92.8c6.38 0 11.6 4.87 11.6 10.824v70.352c0 5.953-5.22 10.824-11.6 10.824Z" fill="#BA12F1"/><path d="M122.4 139H29.6c-6.38 0-11.6-4.871-11.6-10.824V57.824C18 51.87 23.22 47 29.6 47h92.8c6.38 0 11.6 4.87 11.6 10.824v70.352c0 5.953-5.22 10.824-11.6 10.824Z" fill="#fff"/><rect x="18" y="47" width="116" height="92" rx="11" fill="url(#a)"/><rect x="30" y="60" width="90" height="67" rx="8" stroke="#fff" stroke-width="2" stroke-linecap="round" stroke-linejoin="round" stroke-dasharray="6 6"/><path fill-rule="evenodd" clip-rule="evenodd" d="M67.109 100.952c7.096-5.322 11.215 1.387 5.307 5.384-7.694 5.205-3.684 14.147 6.805 7.006 2.263-4.404.027-12.467 8.295-14.806L90 96.038c-2.166-2.286-1.569-3.496-.643-7.144.926-3.648-2.947-5.755-5.646-3.498-3.036 2.538-6.816-3.392-1.785-6.436 1.618-.98 3.831-1.876 4.281-3.944 2.162-9.924-28.762.506-23.032 10.104 1.646 2.757 7.176.32 8.618 1.842 2.07 2.185-3.819 4.808-5.63 6.146-2.683 1.984-6.082 4.382-4.933 7.249.93 2.323 3.903 2.077 5.879.595Z" fill="#6144E5"/><path d="M44.162 139H57l-6.162 10H38l6.162-10ZM107.838 139H95l6.162 10H114l-6.162-10Z" fill="#6144E5"/><rect width="38" height="38" rx="19" transform="matrix(1 0 0 -1 18 38)" fill="#6144E5"/><path fill-rule="evenodd" clip-rule="evenodd" d="m47.296 16.965-4.885 5.282-10.155-7.284 3.434-6.321s.168 1.38 2.177 1.56c1.885.17 2.613 2.627 4.273 2.887 1.661.261 2.121 1.31 3.043 2.364a6 6 0 0 0 2.113 1.512ZM30.588 20.354l1.736 1.245c-2.05 2.48-3.643 4.477-3.923 4.87a2.678 2.678 0 0 0 4.353 3.121c.28-.393 1.664-2.54 3.351-5.28l1.736 1.244a1.786 1.786 0 0 0 2.492-.41l1.04-1.45-10.156-7.283-1.04 1.453a1.786 1.786 0 0 0 .41 2.49Zm.738 6.629a1.289 1.289 0 1 1-1.502 2.095 1.289 1.289 0 0 1 1.502-2.095Z" fill="#fff"/><rect width="26" height="26" rx="13" transform="matrix(1 0 0 -1 0 77)" fill="#6144E5"/><path d="M99 26.5c0 5.799 4.701 10.5 10.5 10.5S120 32.299 120 26.5 115.299 16 109.5 16 99 20.701 99 26.5Z" fill="#6144E5"/><defs><linearGradient id="a" x1="-25.866" y1="7.202" x2="149.157" y2="150.532" gradientUnits="userSpaceOnUse"><stop offset=".179" stop-color="#C21BE9"/><stop offset=".992" stop-color="#E634B9"/></linearGradient></defs></svg>