<svg width="232" height="232" fill="none" xmlns="http://www.w3.org/2000/svg"><g clip-path="url(#clip0)" fill="#BFBFBF"><path d="M.01 115.705C-.84 54.248 50.716-1.308 118.328.02c62.216 1.228 114.491 51.922 113.662 117.503-.809 64.562-53.634 114.427-116.27 114.477C52.275 232.06-.97 179.519.01 115.705zm9.292.31c-.54 57.174 45.96 106.3 105.989 106.649 57.76.34 107.227-45.062 107.347-106.399.11-60.839-48.068-106.69-106.348-106.92C54.563 9.087 8.692 59.61 9.302 116.046v-.03z"/><path d="M134.934 115.715c5.555 4.554 11.16 8.468 15.916 13.23 4.996 4.993 8.992 10.864 9.362 18.243a16.337 16.337 0 01-4.275 12.384 16.364 16.364 0 01-12.001 5.269c-18.644.24-37.298.32-55.952 0-12.32-.229-19.753-11.782-15.167-23.205A44.731 44.731 0 0192.68 119.29c1.539-.879 3.067-1.797 5.136-2.995-6.705-7.409-10.831-15.347-9.312-25.142a27.659 27.659 0 015.881-13.533 27.702 27.702 0 0139.959-3.262c11.74 10.814 12.29 27.598.59 41.357zm-18.764 39.94c8.652 0 17.305.22 25.977-.06 8.063-.259 10.941-5.372 7.194-12.501-7.054-13.44-18.494-20.439-33.451-20.469-14.547 0-25.798 6.8-32.972 19.64-4.466 7.988-1.378 13.24 7.834 13.38 8.443.08 16.915-.03 25.418-.03v.04zm-.51-42.765c10.571.08 18.414-7.559 18.464-17.973a17.908 17.908 0 00-11.016-16.71 17.934 17.934 0 00-6.898-1.383 18.294 18.294 0 00-13.078 5.15 18.27 18.27 0 00-5.556 12.903 17.961 17.961 0 005.288 12.77 18.01 18.01 0 005.874 3.9 18.013 18.013 0 006.922 1.343z"/></g><defs><clipPath id="clip0"><path fill="#fff" d="M0 0h232v232H0z"/></clipPath></defs></svg>