<svg width="14" height="14" fill="none" xmlns="http://www.w3.org/2000/svg"><path fill-rule="evenodd" clip-rule="evenodd" d="M4.846 5.923h-3.77A1.077 1.077 0 010 4.846v-3.77A1.077 1.077 0 011.077 0h3.77a1.077 1.077 0 011.076 1.077v3.77a1.077 1.077 0 01-1.077 1.076zm-.538-4.308H1.615v2.693h2.693V1.615zM4.846 14h-3.77A1.077 1.077 0 010 12.923v-3.77a1.077 1.077 0 011.077-1.076h3.77a1.077 1.077 0 011.076 1.077v3.77A1.077 1.077 0 014.846 14zm-.538-4.308H1.615v2.693h2.693V9.692zm4.846-3.769h3.77A1.077 1.077 0 0014 4.846v-3.77A1.077 1.077 0 0012.923 0h-3.77a1.077 1.077 0 00-1.076 1.077v3.77a1.077 1.077 0 001.077 1.076zm.538-4.308h2.693v2.693H9.692V1.615zm.539 8.616h1.615V8.615h1.212a.404.404 0 01.404.404v1.212h-1.616v1.615h-1.615v-1.615zM8.734 8.734a.404.404 0 01.285-.119h1.212v1.616H8.615V9.019c0-.107.043-.21.119-.285zm4.324 4.727a.404.404 0 00.404-.403v-1.212h-1.616v1.615h1.212zm-4.324-.118a.404.404 0 01-.119-.285v-1.212h1.616v1.615H9.019a.404.404 0 01-.285-.118z" fill="#B9B9B9"/></svg>