<svg width="137" height="157" viewBox="0 0 137 157" fill="none" xmlns="http://www.w3.org/2000/svg" xmlns:xlink="http://www.w3.org/1999/xlink">
<svg width="137" height="157" fill="none" xmlns="http://www.w3.org/2000/svg"><path d="M28.667 146h18.5v9h-18.5v-9ZM108.833 146h18.5v9h-18.5v-9Z" fill="#6144E5"/><path d="M125.1 143H29.9c-6.545 0-11.9-4.712-11.9-10.471V64.471C18 58.71 23.355 54 29.9 54h95.2c6.545 0 11.9 4.712 11.9 10.47v68.059c0 5.759-5.355 10.471-11.9 10.471Z" fill="#BA12F1"/><path d="M125.1 147H29.9c-6.545 0-11.9-4.712-11.9-10.471V68.471C18 62.71 23.355 58 29.9 58h95.2c6.545 0 11.9 4.712 11.9 10.47v68.059c0 5.759-5.355 10.471-11.9 10.471Z" fill="url(#a)"/><rect x="58" y="85" width="32" height="13" rx="5" transform="rotate(90 58 85)" fill="#6144E5"/><path d="M92.5 82C82.325 82 74 90.55 74 101s8.325 19 18.5 19 18.5-8.55 18.5-19-8.325-19-18.5-19Zm0 32.3c-7.215 0-12.95-5.89-12.95-13.3 0-7.41 5.735-13.3 12.95-13.3 7.215 0 12.95 5.89 12.95 13.3 0 7.41-5.735 13.3-12.95 13.3Z" fill="#6144E5"/><path d="M89 87a3 3 0 1 1 6 0h-6ZM95 116a3 3 0 1 1-6 0h6ZM107 99c1.657 0 3 1.119 3 2.5s-1.343 2.5-3 2.5v-5ZM78 104a3 3 0 1 1 0-6v6ZM104.492 110.066a2.705 2.705 0 0 1 0 3.828 2.705 2.705 0 0 1-3.828 0l3.828-3.828ZM79.605 92.837a2.707 2.707 0 1 1 3.829-3.829l-3.829 3.829ZM84.255 113.853a2.708 2.708 0 0 1-3.829-3.829l3.829 3.829ZM101.073 88.475a2.708 2.708 0 0 1 3.829 3.83l-3.829-3.83Z" fill="#fff"/><rect x="29" y="67" width="97" height="72" rx="8" stroke="#fff" stroke-width="2" stroke-linecap="round" stroke-linejoin="round" stroke-dasharray="6 6"/><path d="M5.258 42.845a23.603 23.603 0 0 1 5.067-7.556 23.366 23.366 0 0 1 7.541-5.079A23.41 23.41 0 0 1 27 28.375h.105c3.19.016 6.276.649 9.181 1.893a23.416 23.416 0 0 1 7.473 5.09 23.467 23.467 0 0 1 5.01 7.53 23.727 23.727 0 0 1 1.803 9.223 23.763 23.763 0 0 1-2.526 10.541v8.016a2.425 2.425 0 0 1-2.42 2.426H37.62a23.61 23.61 0 0 1-10.52 2.531h-.111c-3.154 0-6.207-.612-9.087-1.809a23.372 23.372 0 0 1-7.514-5.02 23.455 23.455 0 0 1-5.079-7.488 23.66 23.66 0 0 1-1.888-9.203 23.724 23.724 0 0 1 1.836-9.26Zm32.268 11.686a2.53 2.53 0 0 0 0-5.062A2.53 2.53 0 0 0 35 52a2.527 2.527 0 0 0 2.526 2.531Zm-10.526 0a2.53 2.53 0 0 0 0-5.062 2.53 2.53 0 0 0 0 5.062Zm-10.526 0a2.53 2.53 0 0 0 0-5.062 2.53 2.53 0 0 0 0 5.062Z" fill="#6144E5"/><path d="M16.474 54.531a2.53 2.53 0 0 0 0-5.062 2.53 2.53 0 0 0 0 5.062ZM27 54.531a2.53 2.53 0 0 0 0-5.062 2.53 2.53 0 0 0 0 5.062ZM37.526 54.531a2.53 2.53 0 0 0 0-5.062A2.53 2.53 0 0 0 35 52a2.527 2.527 0 0 0 2.526 2.531Z" fill="#6144E5"/><g clip-path="url(#b)"><path d="M36.084 45.769c-.594-3.517-3.803-5.867-7.169-5.246-3.366.62-6.208 3.326-5.614 6.845.126.758.482 1.942.901 2.794l-6.113 9.123c-.225.336-.353.944-.286 1.348l.394 2.328a.724.724 0 0 0 .827.607l1.79-.332c.388-.07.88-.411 1.092-.755l2.418-3.91.021-.027 1.637-.302 2.823-4.582c.928.164 2.26.108 3.046-.037 3.364-.621 4.828-4.335 4.233-7.854Zm-2.982 1.804c-.926 1.382-1.871.408-3.193-.562-1.322-.966-2.522-1.561-1.597-2.943.926-1.382 2.747-1.719 4.072-.75 1.323.967 1.643 2.873.718 4.255Z" fill="#fff"/></g><rect width="26" height="26" rx="13" transform="matrix(1 0 0 -1 57 33)" fill="#6144E5"/><rect width="17" height="17" rx="8.5" transform="matrix(1 0 0 -1 97 42)" fill="#6144E5"/><defs><linearGradient id="a" x1="-27" y1="19.5" x2="144" y2="168" gradientUnits="userSpaceOnUse"><stop offset=".179" stop-color="#C21BE9"/><stop offset=".992" stop-color="#E634B9"/></linearGradient><clipPath id="b"><path fill="#fff" transform="translate(15.188 40.188)" d="M0 0h23.625v23.625H0z"/></clipPath></defs></svg>