<svg width="18" height="18" fill="none" xmlns="http://www.w3.org/2000/svg"><path fill-rule="evenodd" clip-rule="evenodd" d="M3.114 1.663C3.433.699 4.381 0 5.5 0c1.12 0 2.067.699 2.386 1.663h9.364c.414 0 .75.319.75.712 0 .393-.336.712-.75.712H7.886C7.567 4.051 6.619 4.75 5.5 4.75c-1.12 0-2.067-.699-2.386-1.663H.75c-.414 0-.75-.319-.75-.712 0-.393.336-.712.75-.712h2.364zM5.5 3.23c-.497 0-.9-.383-.9-.855s.403-.855.9-.855.9.383.9.855-.403.855-.9.855zm5.614 5.082c.319-.963 1.267-1.662 2.386-1.662 1.12 0 2.067.699 2.386 1.662h1.364c.414 0 .75.32.75.713 0 .393-.336.713-.75.713h-1.364c-.319.963-1.267 1.662-2.386 1.662-1.12 0-2.067-.699-2.386-1.662H.75c-.414 0-.75-.32-.75-.713 0-.393.336-.713.75-.713h10.364zM13.5 9.88c.497 0 .9-.383.9-.855s-.403-.855-.9-.855-.9.383-.9.855.403.855.9.855zm-9.386 5.082C4.433 14 5.381 13.3 6.5 13.3c1.12 0 2.067.699 2.386 1.662h8.364c.414 0 .75.32.75.713 0 .393-.336.712-.75.712H8.886c-.319.964-1.267 1.663-2.386 1.663-1.12 0-2.067-.699-2.386-1.663H.75c-.414 0-.75-.319-.75-.712 0-.394.336-.713.75-.713h3.364zM6.5 16.53c.497 0 .9-.383.9-.855s-.403-.855-.9-.855-.9.383-.9.855.403.855.9.855z" fill="#000"/></svg>