<svg width="18" height="22" fill="none" xmlns="http://www.w3.org/2000/svg"><path fill-rule="evenodd" clip-rule="evenodd" d="M9.488.18A.75.75 0 008.47.22L5.288 3.402a.75.75 0 001.06 1.06L8.25 2.561v10.621a.75.75 0 001.5 0V2.561l1.902 1.901a.75.75 0 101.06-1.06L9.53.22M1.995 6.932H5v1.5H1.5v12h15v-12H13v-1.5h3.005c1.102 0 1.995.893 1.995 1.992V19.94c0 1.1-.893 1.992-1.995 1.992H1.995A1.995 1.995 0 010 19.94V8.924c0-1.1.893-1.992 1.995-1.992z" fill="#000"/></svg><svg width="18" height="22" fill="none" xmlns="http://www.w3.org/2000/svg"><path fill-rule="evenodd" clip-rule="evenodd" d="M9.488.18A.75.75 0 008.47.22L5.288 3.402a.75.75 0 001.06 1.06L8.25 2.561v10.621a.75.75 0 001.5 0V2.561l1.902 1.901a.75.75 0 101.06-1.06L9.53.22M1.995 6.932H5v1.5H1.5v12h15v-12H13v-1.5h3.005c1.102 0 1.995.893 1.995 1.992V19.94c0 1.1-.893 1.992-1.995 1.992H1.995A1.995 1.995 0 010 19.94V8.924c0-1.1.893-1.992 1.995-1.992z" fill="#000"/></svg>