<svg width="37" height="37" fill="none" xmlns="http://www.w3.org/2000/svg"><path d="M18.5 0C8.284 0 0 8.284 0 18.5S8.284 37 18.5 37 37 28.716 37 18.5 28.716 0 18.5 0zm.392 29.271h-.004c-1.854 0-3.675-.465-5.292-1.347l-5.87 1.54 1.571-5.737a11.044 11.044 0 01-1.478-5.534c.003-6.103 4.97-11.068 11.073-11.068a11.002 11.002 0 017.832 3.246 11 11 0 013.24 7.831c-.002 6.103-4.97 11.07-11.072 11.07z" fill="currentColor"/><path d="M18.896 8.994c-5.077 0-9.205 4.127-9.207 9.2 0 1.738.486 3.431 1.407 4.896l.219.348-.93 3.395 3.483-.913.336.199a9.188 9.188 0 004.684 1.282h.004c5.072 0 9.2-4.127 9.203-9.2 0-2.458-.955-4.77-2.693-6.508a9.142 9.142 0 00-6.506-2.699zm5.413 13.155c-.23.646-1.336 1.236-1.867 1.316-.477.07-1.08.1-1.743-.11a15.965 15.965 0 01-1.577-.583c-2.776-1.198-4.588-3.991-4.726-4.176-.139-.184-1.13-1.5-1.13-2.861 0-1.361.715-2.03.968-2.307.254-.277.554-.346.738-.346.184 0 .369.001.53.01.17.008.398-.065.623.474.23.554.784 1.915.853 2.053.069.14.115.3.023.485-.093.185-.4.583-.692.946-.123.152-.283.288-.121.565.161.276.717 1.182 1.539 1.916 1.057.942 1.948 1.234 2.225 1.372.276.139.438.116.6-.069.16-.184.69-.808.875-1.084.184-.277.369-.231.622-.139.254.092 1.614.762 1.891.9.277.139.461.208.53.323.07.116.07.67-.161 1.315z" fill="currentColor"/></svg>