<svg width="217" height="250" fill="none" xmlns="http://www.w3.org/2000/svg"><g clip-path="url(#clip0)" fill="#BFBFBF"><path d="M108.642 98.513c7.705 0 14.963 5.241 16.749 12.165a16.894 16.894 0 01-.802 11.361 16.93 16.93 0 01-7.833 8.277c-3.35 1.682-4.457 3.671-4.178 7.156.233 2.918 0 5.864.046 8.801.056 2.658-.818 4.712-3.722 4.842-3.284.149-4.113-2.165-4.15-4.926-.046-3.243-.149-6.505 0-9.73.121-2.983-.93-4.693-3.806-6.022-7.081-3.281-10.998-11.153-9.398-17.835 2.14-8.885 8.45-14.061 17.094-14.09zm9.249 16.728a9.29 9.29 0 00-2.955-6.36 9.312 9.312 0 00-6.564-2.487 8.966 8.966 0 00-6.241 2.824 8.948 8.948 0 00-2.413 6.404 8.938 8.938 0 005.794 8.075 8.96 8.96 0 003.446.569c4.858-.14 9.064-4.387 8.933-8.987v-.038z"/><path fill-rule="evenodd" clip-rule="evenodd" d="M108.285 9.775C90.768 27.075 71.802 40.547 54.4 50.157c-16.75 9.25-32.264 15.04-43.798 17.115-.101 9.459.646 37.587 11.396 69.766 12.05 36.069 36.589 77.038 86.492 102.735 54.498-25.63 78.914-66.858 89.642-102.966 9.706-32.669 8.183-61.122 7.385-69.845-46.41-12.774-82.125-41.397-97.232-57.187zm-3.572-8.267c1.985-2.017 5.41-2.14 7.47.161 12.867 14.376 49.508 45.152 97.648 57.79 1.615.424 3.471 1.796 3.767 4.26.578 4.82 3.881 37.374-7.437 75.468-11.357 38.223-37.465 82.056-95.584 108.843a5.151 5.151 0 01-4.464-.078c-53.337-26.905-79.409-70.398-92.06-108.266C1.426 101.883 2.092 69.494 2.299 64.194a4.952 4.952 0 011.509-3.387A5.16 5.16 0 016.71 59.42c10.351-1.393 26.013-6.851 43.636-16.583 17.554-9.695 36.805-23.494 54.366-41.33z"/></g><defs><clipPath id="clip0"><path fill="#fff" d="M0 0h217v250H0z"/></clipPath></defs></svg>