<svg width="120" height="140" fill="none" xmlns="http://www.w3.org/2000/svg"><path fill-rule="evenodd" clip-rule="evenodd" d="M59.895 26.819c-7.396 0-13.41-6.014-13.41-13.41S52.5 0 59.896 0s13.41 6.013 13.41 13.41c0 7.395-6.014 13.409-13.41 13.409Zm.252-8.549v4.756l5.887-8.276-5.887 3.52Zm0-14.478 5.678 9.429-5.678-2.577V3.792Zm0 7.376v5.866l5.636-3.29-5.636-2.576Zm-.503-7.376-5.657 9.429 5.657-2.577V3.792Zm0 7.376v5.866l-5.636-3.29 5.636-2.576Zm0 11.858V18.27l-5.888-3.52 5.888 8.276Z" fill="#CECECE"/><g clip-path="url(#a)"><path d="M59.895 26.819c7.406 0 13.41-6.004 13.41-13.41C73.305 6.004 67.3 0 59.895 0c-7.406 0-13.41 6.004-13.41 13.41 0 7.405 6.004 13.409 13.41 13.409Z" fill="#6144E5"/></g><path fill-rule="evenodd" clip-rule="evenodd" d="M85.82 33.97c-4.438 0-8.046-3.607-8.046-8.045s3.608-8.046 8.046-8.046c4.438 0 8.046 3.608 8.046 8.046 0 4.438-3.608 8.046-8.046 8.046Zm.15-5.128v2.853l3.533-4.965-3.532 2.112Zm0-8.687 3.408 5.657-3.407-1.546v-4.111Zm0 4.425v3.52l3.383-1.974-3.382-1.546Zm-.3-4.425-3.395 5.657 3.394-1.546v-4.111Zm0 4.425v3.52l-3.383-1.974 3.382-1.546Zm0 7.115v-2.853l-3.533-2.112 3.532 4.965Z" fill="#CECECE"/><g clip-path="url(#b)"><path d="M85.82 33.97a8.046 8.046 0 1 0 0-16.09 8.046 8.046 0 0 0 0 16.09Z" fill="#6144E5"/></g><path fill-rule="evenodd" clip-rule="evenodd" d="M94.537 39.893c6.121 0 11.1 4.978 11.1 11.1v12.925l-11.1-1.825v-9.312c0-.987-.8-1.788-1.788-1.788H22.387v-11.1h72.15Z" fill="#B22CF5"/><g clip-path="url(#c)"><path d="M72.858 76.88c9.627 0 17.432-7.804 17.432-17.432 0-9.627-7.805-17.432-17.433-17.432-9.627 0-17.432 7.805-17.432 17.432 0 9.628 7.805 17.432 17.433 17.432Z" fill="#6144E5"/><g opacity=".5" fill="#fff"><path d="M73.4 46.374v9.664l8.167 3.65L73.4 46.374Z" fill-opacity=".602"/><path d="m73.4 46.374-8.169 13.314 8.17-3.65v-9.664Z"/><path d="M73.4 65.95v6.567l8.173-11.308-8.174 4.742Z" fill-opacity=".602"/><path d="M73.4 72.517V65.95l-8.169-4.741 8.17 11.308Z"/><path d="m73.4 64.43 8.167-4.742L73.4 56.04v8.39Z" fill-opacity=".2"/><path d="m65.231 59.688 8.17 4.742v-8.39l-8.17 3.648Z" fill-opacity=".602"/></g></g><mask id="f" style="mask-type:alpha" maskUnits="userSpaceOnUse" x="0" y="39" width="111" height="101"><path fill-rule="evenodd" clip-rule="evenodd" d="M99.9 61.534H16.65a5.556 5.556 0 0 1 0-11.1v-11.1C7.47 39.334 0 46.804 0 55.984v66.6c0 12.216 9.957 16.65 16.65 16.65H99.9c6.122 0 11.1-4.978 11.1-11.1v-55.5c0-6.122-4.978-11.1-11.1-11.1Zm-22.2 49.95h11.1v-22.2H77.7v22.2Z" fill="url(#d)"/><path d="M88.8 111.484H77.7v-22.2h11.1v22.2Z" fill="url(#e)"/></mask><g mask="url(#f)"><path d="M-41.561-45.592 183.072 99.272l-80.911 125.465-224.633-144.865 80.911-125.464Z" fill="url(#g)"/></g><rect x="15.197" y="72.411" width="83.138" height="56.319" rx="7.152" stroke="#fff" stroke-width="1.788" stroke-linecap="round" stroke-linejoin="round" stroke-dasharray="5.36 5.36"/><rect x="88" y="93" width="32" height="15.59" rx="4.103" fill="#6144E5"/><circle cx="96.616" cy="100.795" r="3.692" fill="#fff"/><path d="M28.607 60.79c11.85 0 21.455-9.606 21.455-21.456 0-11.849-9.606-21.455-21.455-21.455-11.85 0-21.455 9.606-21.455 21.455 0 11.85 9.606 21.455 21.455 21.455Z" fill="#6144E5"/><path d="M38.247 36.68c.42-2.811-1.72-4.322-4.647-5.33l.95-3.809-2.317-.576-.925 3.707c-.61-.153-1.234-.295-1.858-.437l.932-3.732-2.317-.578-.95 3.807c-.503-.115-1-.228-1.48-.348l.003-.012-3.197-.798-.617 2.475s1.72.394 1.685.418c.938.235 1.107.856 1.079 1.35l-1.08 4.337c.064.016.147.04.24.077l-.245-.06-1.515 6.077c-.115.284-.406.712-1.063.55.024.033-1.685-.42-1.685-.42l-1.15 2.652 3.017.752c.56.141 1.11.289 1.65.427l-.958 3.85 2.316.578.95-3.809c.632.17 1.246.329 1.847.479l-.947 3.792 2.317.577.96-3.843c3.952.748 6.924.446 8.175-3.129 1.008-2.877-.05-4.539-2.13-5.621 1.516-.349 2.656-1.345 2.96-3.403Zm-5.297 7.426c-.715 2.879-5.562 1.322-7.134.932l1.274-5.103c1.572.393 6.61 1.17 5.86 4.17Zm.717-7.468c-.653 2.619-4.686 1.287-5.994.962l1.154-4.627c1.307.326 5.522.934 4.84 3.665Z" fill="#fff"/><defs><linearGradient id="d" x1="-41.975" y1="-3.881" x2="142.005" y2="128.889" gradientUnits="userSpaceOnUse"><stop offset=".179" stop-color="#C21BE9"/><stop offset=".992" stop-color="#E634B9"/></linearGradient><linearGradient id="e" x1="-41.975" y1="-3.881" x2="142.005" y2="128.889" gradientUnits="userSpaceOnUse"><stop offset=".179" stop-color="#C21BE9"/><stop offset=".992" stop-color="#E634B9"/></linearGradient><linearGradient id="g" x1="-64" y1="-50" x2="57.453" y2="257.111" gradientUnits="userSpaceOnUse"><stop offset=".018" stop-color="#C21BE9"/><stop offset=".825" stop-color="#E634B9"/></linearGradient><clipPath id="a"><path fill="#fff" transform="translate(46.486)" d="M0 0h26.819v26.819H0z"/></clipPath><clipPath id="b"><path fill="#fff" transform="translate(77.774 17.88)" d="M0 0h16.091v16.091H0z"/></clipPath><clipPath id="c"><path fill="#fff" transform="translate(55.425 42.016)" d="M0 0h34.864v34.864H0z"/></clipPath></defs></svg>