<svg width="40" height="40" fill="none" xmlns="http://www.w3.org/2000/svg"><path d="M20 40c11.046 0 20-8.954 20-20S31.046 0 20 0 0 8.954 0 20s8.954 20 20 20z" fill="#272D63"/><path d="M25.269 9l-.875 3.553c2.705.944 4.696 2.362 4.307 4.987-.112.797-.387 1.596-.955 2.2-.486.521-1.246.798-1.895 1.01a8.074 8.074 0 01-2.412.424c-.55 0-1.085-.017-1.635-.065-.89-.067-1.798-.148-2.671-.343-.275-.065-.535-.113-.778-.18l-1.183 4.775-.696 2.608-.875 3.57L13.45 31l.891-3.602c-.502-.13-1.021-.277-1.539-.408l-2.801-.7 1.069-2.462s1.587.425 1.57.392c.616.146.875-.261.987-.521l1.215-4.89.567-2.265.648-2.608c.031-.456-.13-1.042-1.005-1.255.033-.016-1.57-.39-1.57-.39l.566-2.315 2.963.75c.455.113.907.212 1.377.325l.875-3.552 2.153.537-.857 3.488c.566.131 1.15.261 1.716.407l.841-3.47L25.269 9zm-.178 12.875c.599-.099 1.328-.343 1.845-.555.017-.016.05-.016.065-.032 1.118.993 1.651 2.607.923 4.677-1.15 3.358-3.918 3.634-7.578 2.934l-.89 3.601-2.137-.538.825-3.438.032-.114.649-2.641c1.91.425 4.485.701 4.97-1.288.26-1.059-.243-1.825-1.053-2.379l.843-.05c.6-.03.906-.08 1.506-.178v.001zm-.632-4.369c.632-2.559-3.288-3.112-4.5-3.437l-1.07 4.333c1.215.31 4.971 1.55 5.57-.896z" fill="#FEFEFE"/></svg>