<svg width="40" height="40" fill="none" xmlns="http://www.w3.org/2000/svg"><path d="M20 40c11.046 0 20-8.954 20-20S31.046 0 20 0 0 8.954 0 20s8.954 20 20 20z" fill="#3AB03E"/><path d="M21.451 20.974a2.927 2.927 0 001.663-2.634c0-1.617-1.328-2.929-2.963-2.929-1.637 0-2.966 1.312-2.966 2.929a2.926 2.926 0 001.665 2.633v3.617h2.601v-3.616zm-1.3 8.401c-5.232 0-9.487-4.205-9.487-9.375s4.255-9.375 9.487-9.375c4.269 0 7.888 2.8 9.075 6.64h3.27C31.234 11.677 26.186 7.5 20.15 7.5 13.164 7.5 7.5 13.096 7.5 20s5.664 12.5 12.65 12.5c6.036 0 11.084-4.177 12.346-9.765h-3.271c-1.188 3.84-4.806 6.64-9.075 6.64" fill="#fff"/></svg>