<svg width="40" height="40" fill="none" xmlns="http://www.w3.org/2000/svg"><path d="M20 40c11.046 0 20-8.954 20-20S31.046 0 20 0 0 8.954 0 20s8.954 20 20 20z" fill="#36B0F3"/><path fill-rule="evenodd" clip-rule="evenodd" d="M17.613 5.326c1-.2 2.018-.286 3.037-.257.635 0 1.27.057 1.896.171 1.219.167 2.394.555 3.54.99.834.372 1.708.722 2.385 1.355.189.138.088.412-.08.521-.387.249-.853.32-1.296.418-1.995.342-4.025.496-5.985 1.027-.879.198-1.724.52-2.56.854-1.554.695-2.982 1.716-4.016 3.081a20.56 20.56 0 00-.57.881c-.164.32-.329.638-.463.972-.1.239-.192.48-.28.722-.176.517-.262 1.055-.393 1.585-.042.348-.066.698-.138 1.041-.046.788-.024 1.575-.018 2.363 0 .262.072.52.075.784.004.242.038.483.103.717.125.657.277 1.322.556 1.935.361.872.924 1.688 1.724 2.206.664.493 1.485.703 2.29.828 1.075.14 2.166.012 3.225-.18.554-.1 1.104-.225 1.65-.371.346-.098.702-.163 1.045-.279.131-.023.264-.035.398-.038-.43.383-.86.763-1.346 1.072-1.652 1.065-3.573 1.62-5.49 1.977-.866.178-1.747.283-2.62.433-.993.143-2.023.262-2.92.75-.267.187-.475.442-.66.707-.057.115-.163 0-.226-.041-.204-.234-.465-.405-.686-.621a25.804 25.804 0 01-.695-.695c-.364-.424-.738-.842-1.059-1.298-.64-.867-1.206-1.796-1.621-2.791l-.072-.032c-.053-.287-.198-.54-.294-.81a13.229 13.229 0 01-.55-1.826 4.711 4.711 0 01-.129-.577 2.835 2.835 0 01-.12-.675c-.122-.538-.1-1.093-.178-1.635 0-.453-.03-.909.026-1.36.06-.375.035-.759.112-1.133.076-.303.061-.62.157-.92.12-.668.296-1.325.526-1.964.09-.236.17-.473.255-.71.05-.108.09-.22.125-.333l.066-.079c.08-.234.183-.46.308-.675.125-.26.26-.516.407-.765.042-.088.09-.175.14-.262.787-1.234 1.707-2.403 2.815-3.368a15.737 15.737 0 014.661-2.874c.95-.373 1.937-.648 2.944-.82h-.002z" fill="#fff"/><path fill-rule="evenodd" clip-rule="evenodd" d="M29.051 9.238c.275-.16.464-.42.654-.665A15.001 15.001 0 0131.33 29.76c-2.296 2.698-5.594 4.53-9.107 5.016-1.617.238-3.263.175-4.878-.046a14.112 14.112 0 01-3.596-1.006c-.625-.275-1.247-.598-1.735-1.085-.127-.11-.207-.293-.123-.452.125-.193.35-.29.563-.358.606-.175 1.23-.278 1.853-.374 1.128-.196 2.267-.322 3.385-.569 1.86-.401 3.718-.97 5.325-2.012 1.093-.698 2.056-1.605 2.764-2.693 1.018-1.535 1.488-3.373 1.6-5.196.056-1.356.025-2.725-.259-4.058-.258-1.15-.712-2.308-1.57-3.146-.657-.674-1.55-1.092-2.473-1.252-1.532-.287-3.095-.01-4.595.327-.703.167-1.395.375-2.105.513 1.01-.951 2.246-1.631 3.545-2.096.746-.277 1.521-.46 2.292-.642 1.69-.38 3.42-.525 5.125-.817.595-.125 1.2-.245 1.71-.576z" fill="#fff"/></svg>