<svg width="40" height="40" fill="none" xmlns="http://www.w3.org/2000/svg"><path d="M20 40c11.046 0 20-8.954 20-20S31.046 0 20 0 0 8.954 0 20s8.954 20 20 20z" fill="#F7931A"/><path d="M28.986 17.525c.393-2.62-1.604-4.029-4.331-4.969l.885-3.55-2.16-.537-.863 3.456c-.567-.143-1.15-.275-1.73-.408l.868-3.478-2.16-.539-.885 3.549c-.47-.108-.933-.213-1.38-.325l.003-.011-2.98-.744-.575 2.307s1.603.368 1.57.39c.874.219 1.032.798 1.006 1.258l-1.008 4.044c.06.015.138.037.225.07l-.229-.055-1.412 5.665c-.107.265-.379.663-.991.512.022.031-1.57-.391-1.57-.391l-1.073 2.472 2.813.701c.522.132 1.035.27 1.538.398l-.893 3.59 2.159.538.885-3.55c.59.158 1.162.306 1.722.446l-.883 3.535 2.16.537.894-3.582c3.685.697 6.455.416 7.621-2.916.94-2.683-.046-4.232-1.985-5.24 1.413-.326 2.476-1.254 2.76-3.173zm-4.937 6.923c-.666 2.683-5.185 1.232-6.65.868l1.187-4.756c1.465.366 6.162 1.09 5.463 3.888zm.669-6.962c-.61 2.441-4.37 1.2-5.588.896l1.075-4.312c1.219.304 5.148.87 4.513 3.416z" fill="#fff"/></svg>