<svg width="40" height="40" fill="none" xmlns="http://www.w3.org/2000/svg"><path d="M20 40c11.046 0 20-8.954 20-20S31.046 0 20 0 0 8.954 0 20s8.954 20 20 20z" fill="#008CE7"/><path d="M23.857 10.005h-9.095l-.752 4.209 8.202.012c4.04 0 5.238 1.466 5.2 3.9-.018 1.248-.562 3.358-.792 4.038-.621 1.825-1.901 3.902-6.699 3.896l-7.972-.005-.753 4.214h9.071c3.2 0 4.562-.374 6-1.038 3.193-1.472 5.094-4.626 5.858-8.742 1.132-6.125-.28-10.484-8.269-10.484h.001z" fill="#fff"/><path d="M19.759 19.747c.296-1.23.39-1.724.39-1.724H10.84c-2.38 0-2.72 1.55-2.946 2.487a39.79 39.79 0 00-.39 1.726h9.309c2.378 0 2.718-1.55 2.945-2.489z" fill="#fff"/></svg>