<svg width="40" height="40" fill="none" xmlns="http://www.w3.org/2000/svg"><path d="M20 40c11.046 0 20-8.954 20-20S31.046 0 20 0 0 8.954 0 20s8.954 20 20 20z" fill="#383939"/><path fill-rule="evenodd" clip-rule="evenodd" d="M24.341 14.349l3.334-.764 1.291-2.126-1.275-2.091L26.06 8.24l-3.354-.74-2.069 1.166-3.31-.59-4.545 3.149-.354 3.678-1.928.804.222 3.412-1.346 1.072 1.345 3.84.202.403 1.423 3.953 2.924 1.035 2.167 2.206 2.493.872 1.127-.325 1.789-.206 2.623-.752 3.907-2.206-1.023-4.04-1.967-.775-.98 1.121-2.756.678-4.009-.635-1.294-1.496.45-1.464-1.895-2.999 1.594-1.945.17-3.306 2.283-1.31 1.564-.625 2.125.384.704 1.75z" fill="#fff"/></svg>