<svg width="40" height="40" fill="none" xmlns="http://www.w3.org/2000/svg"><path d="M20 40c11.046 0 20-8.954 20-20S31.046 0 20 0 0 8.954 0 20s8.954 20 20 20z" fill="#DF1A14"/><path d="M18.575 14.409c.384-.122.82.095.979.472.384.878.727 1.782 1.125 2.658.237.526 1.046.593 1.362.108.53-.877.954-1.808 1.47-2.7.424-.552 1.192-.282 1.774-.336.609-.04 1.059.729.714 1.255-1.668 3.117-3.348 6.22-5.015 9.338-.279.566-1.192.566-1.443-.028-.371-.903-.662-1.848-1.02-2.752-.212-.594-1.125-.688-1.428-.122-.517.932-.967 1.903-1.483 2.82-.251.418-.781.35-1.191.35-.398-.026-.874.095-1.178-.242a.87.87 0 01-.12-1.053c1.563-2.954 3.15-5.922 4.713-8.904.185-.338.343-.757.741-.863v-.001zm-5.454.23c.463-.027.927-.027 1.39 0 .517.054.848.715.597 1.187-1.55 2.928-3.112 5.841-4.66 8.756-.186.325-.33.757-.728.863-.463.069-.939.029-1.403.029-.568.026-1.045-.716-.7-1.215 1.614-3.023 3.228-6.059 4.843-9.094.132-.256.357-.512.662-.526zm16.425.026c.503-.149 1.033-.04 1.549-.081.396.014.9-.068 1.191.284.358.364.25 1.052-.2 1.282-.912.58-1.812 1.2-2.737 1.768-.584.403-1.444-.284-1.193-.96.225-.54.543-1.037.795-1.564.145-.27.278-.62.595-.729zm-4.381 8.069c.265-.163.596-.108.848.027.7.35 1.402.729 2.117 1.067.305.134.623.39.635.755.054.486-.358.957-.834.917-1.018 0-2.037.012-3.044 0-.502 0-.9-.594-.715-1.079.133-.351.332-.662.49-1 .12-.255.238-.566.503-.687z" fill="#fff"/></svg>