<svg width="40" height="40" fill="none" xmlns="http://www.w3.org/2000/svg"><path d="M20 40c11.046 0 20-8.954 20-20S31.046 0 20 0 0 8.954 0 20s8.954 20 20 20z" fill="#23BEE2"/><path d="M24.849 16.836l4.049-4.265a11.532 11.532 0 012.69 7.423c0 6.396-5.187 11.582-11.588 11.582a11.541 11.541 0 01-5.585-1.434l10.297-5.307 1.678-.865-1.554-1.074-1.11-.767 3.238-1.653 1.61-.822-1.443-1.09-2.282-1.728zm-9.698 6.918l-3.775 3.975a11.535 11.535 0 01-2.965-7.735C8.411 13.596 13.6 8.41 20 8.41a11.537 11.537 0 016.133 1.755l-10.845 5.59-1.678.866 1.554 1.073 1.11.767-3.238 1.654-1.61.821 1.443 1.091 2.282 1.727zm-4.481 4.721l-.781.822a13.688 13.688 0 01-3.639-9.303C6.25 12.415 12.419 6.25 20 6.25c3.116 0 5.995 1.043 8.304 2.796l-1.128.582A12.55 12.55 0 0020 7.382c-6.956 0-12.616 5.657-12.616 12.61a12.55 12.55 0 003.287 8.48l-.001.002zm18.935-16.65L30.39 11a13.68 13.68 0 013.36 8.994c0 7.577-6.169 13.742-13.75 13.742a13.676 13.676 0 01-7.816-2.442l1.155-.596A12.545 12.545 0 0020 32.604c6.956 0 12.616-5.658 12.616-12.61a12.55 12.55 0 00-3.011-8.168v-.001zm-16.052 9.3l4.926-2.516-2.671-1.845L30.595 9.14l-7.441 7.835 3.294 2.492-4.927 2.516 2.671 1.845L9.405 31.45l7.441-7.835-3.293-2.491z" fill="#fff"/></svg>