<svg width="40" height="40" fill="none" xmlns="http://www.w3.org/2000/svg"><path d="M20 40c11.046 0 20-8.954 20-20S31.046 0 20 0 0 8.954 0 20s8.954 20 20 20z" fill="#5BC1D4"/><path fill-rule="evenodd" clip-rule="evenodd" d="M17.231 21.16l-2.062 2.155c-.372.387-.735.779-1.108 1.164-.062.065-.151.104-.227.155-.163-.026-.288-.128-.309-.275a21 21 0 01-.093-.675c-.037-.298-.128-.38-.43-.418-.62-.075-1.24-.156-1.862-.237l-1.418-.184c-.282-.037-.384-.24-.237-.481.34-.548.683-1.093 1.024-1.638l2.087-3.335c.083-.135.175-.227.353-.222.112.002.23-.025.341-.054.133-.032.236.008.329.095.164.154.33.306.492.461l1.885 1.789c.406.385.816.767 1.223 1.152.21.198.21.34.012.548zm13.863 2.899c.117.097.245.19.27.356.031.213-.054.366-.234.483-1.063.687-2.125 1.378-3.188 2.067l-2.053 1.331a1.623 1.623 0 00-.185.137.427.427 0 00-.157.352c.01.256.026.512.03.767.003.294-.213.478-.508.444a.409.409 0 01-.269-.153l-.74-.857c-.309-.357-.616-.717-.926-1.073a.592.592 0 01-.169-.493l.043-1.494c.005-.175.108-.287.248-.377l1.698-1.085c.95-.606 1.902-1.21 2.85-1.823.2-.128.386-.167.606-.055a.689.689 0 00.523.043c.263-.084.466-.01.67.17.487.43.993.84 1.492 1.26h-.001zm-9.123 1.24c.077.075.132.17.159.275.046.233-.046.392-.266.498-.732.353-1.462.71-2.199 1.05-.133.06-.299.068-.45.076-.611.027-1.223.043-1.834.068-.361.014-.721.037-1.053.054h-.245a.414.414 0 01-.3-.119c-.078-.071-.158-.14-.234-.212-.43-.409-.853-.825-1.291-1.225-.245-.223-.25-.521-.015-.76.526-.543 1.046-1.09 1.568-1.638.564-.59 1.128-1.182 1.69-1.775a.481.481 0 01.703-.035l2.25 2.236c.505.503 1.015 1 1.517 1.507zm3.098-10.061c-.241-.373.031-.888.432-.954 1.073-.179 2.141-.384 3.213-.57.236-.042.424.067.553.262.226.338.447.676.67 1.015.47.713.94 1.425 1.405 2.14.063.096.094.213.14.319l-.027.012a.83.83 0 01-.192.498c-.655.88-1.318 1.756-1.972 2.637a.614.614 0 01-1.009-.068c-.956-1.588-1.922-3.17-2.884-4.754-.11-.18-.215-.363-.33-.537zm-1.881 4.415L23 21.32c-.052.463-.109.923-.161 1.385l-.185 1.625c-.013.114-.014.23-.038.34-.012.054-.052.123-.097.14-.045.018-.125-.007-.165-.041-.178-.154-.346-.316-.517-.477-.612-.58-1.22-1.162-1.833-1.74a359.242 359.242 0 00-1.602-1.503c-.177-.165-.178-.218-.007-.396l2.448-2.563 1.67-1.755.82-.862c.025-.025.045-.059.073-.069.059-.021.132-.05.183-.034.042.015.062.091.075.113l-.125 1.1-.162 1.413-.19 1.655zm4.757 1.274c.08.13.093.252.005.386a.771.771 0 00-.115.505c.015.157-.05.253-.184.337-1.046.664-2.087 1.332-3.13 2-.327.21-.655.419-.983.626-.13.083-.264.077-.335-.028-.04-.058-.046-.138-.057-.178l.138-1.01.306-2.228.337-2.437.33-2.384.124-.887c.003-.024.004-.051.017-.069.032-.041.068-.103.11-.11.044-.007.114.027.143.066.076.103.138.216.205.326l2.444 4.02c.215.356.427.712.645 1.064v.002zm-5.066-6.13c.038.025.113.052.153.105.062.083.008.16-.056.227l-.85.894-2.477 2.592c-.518.544-1.033 1.09-1.55 1.633-.188.194-.338.194-.533.01-.604-.573-1.207-1.148-1.812-1.72a739.103 739.103 0 00-1.768-1.662c-.079-.075-.141-.156-.132-.271.012-.156.102-.245.281-.275.326-.059.654-.116.981-.172l3.144-.55 3.712-.652.907-.159zm-8.424.79c.582-.398 1.165-.794 1.749-1.19l5.637-3.84c.188-.128.306-.102.4.1.389.833.775 1.667 1.163 2.5.05.108.097.217.148.325.042.088.014.16-.038.238-.069.096-.126.2-.173.309-.041.104-.104.16-.216.18-.83.147-1.659.3-2.488.447l-2.942.529-3.213.577c-.044.008-.09 0-.137 0l-.027-.05c.046-.042.087-.09.137-.124zm-5.863 1.908c-.367-.008-.586-.365-.41-.694.15-.277.314-.545.474-.816.46-.786.923-1.57 1.38-2.356a.823.823 0 01.313-.306c1.22-.702 2.437-1.407 3.657-2.11a.799.799 0 01.252-.1.435.435 0 01.442.18.448.448 0 01.043.487c-.184.393-.376.781-.563 1.171-.35.715-.7 1.429-1.046 2.145a.542.542 0 01-.375.32.866.866 0 00-.64.638.45.45 0 01-.312.324c-1.002.352-2.003.712-3.005 1.068-.067.025-.138.033-.208.05l-.002-.001zm5.192-2.283a.43.43 0 01.042-.15l1.31-2.87c.273-.598.549-1.194.818-1.793.062-.138.154-.206.308-.213.41-.012.818-.034 1.227-.05l2.412-.091c.283-.012.567-.031.85-.045.203-.009.341.114.343.313.008.12-.069.2-.169.268l-.773.527-4.617 3.14-1.475 1.006a.666.666 0 01-.11.067c-.087.038-.171-.015-.166-.108zm-1.704 2.063c-.204.329-.41.655-.615.983l-2.3 3.675a.532.532 0 01-.125.153c-.132.095-.309.029-.371-.137-.1-.268-.195-.538-.292-.807l-.836-2.352c-.02-.059-.034-.119-.041-.148.001-.158.054-.226.202-.274.446-.144.89-.285 1.335-.427l2.52-.8.33-.102c.08-.025.158-.059.223.028.059.08.01.144-.03.208zm20.148 3.261l.252 1.445c.008.046.013.094.02.155-.013.063-.026.138-.046.21l-.331 1.195c-.095.344-.368.425-.643.193-.564-.475-1.13-.95-1.696-1.423-.129-.107-.183-.231-.153-.401a.786.786 0 00-.057-.503c-.078-.153-.053-.29.048-.424.463-.62.922-1.243 1.383-1.863l.281-.38c.094-.129.218-.191.375-.156.165.037.25.15.278.311l.287 1.641h.002zm-9.456-9.93l-.024-.052c-.034-.075-.048-.163.028-.205a.3.3 0 01.213-.013c.11.034.209.096.312.148l4.203 2.098.746.375c.084.042.15.09.133.195-.018.104-.097.127-.188.143-1.01.18-2.019.363-3.027.544l-.1.02c-.028-.019-.083-.04-.118-.08a1.005 1.005 0 00-.746-.379c-.113-.005-.17-.071-.213-.165-.177-.385-.358-.768-.537-1.151l-.681-1.478z" fill="#fff"/></svg>