<svg width="40" height="40" fill="none" xmlns="http://www.w3.org/2000/svg"><path d="M20 40c11.046 0 20-8.954 20-20S31.046 0 20 0 0 8.954 0 20s8.954 20 20 20z" fill="#F68922"/><path d="M20.9 12.598s-5.159.757-5.91 6.49c0 0-.797 6.418 5.76 8.15.454.12.922.18 1.391.18h.323c.667 0 1.307.267 1.78.742.472.475.737 1.12.737 1.793a2.517 2.517 0 01-2.32 2.527c-3.224.218-7.55-1.365-10.357-5.17 0 0-5.499-7.906.493-15.171a12.716 12.716 0 015.347-3.84c2.462-.922 6.07-1.514 9.201.945 0 0 4.191 3.246 2.043 8.546 0 0-1.506 4.219-6.663 4.544l-.716-.04a2.367 2.367 0 01-1.768-.864 2.403 2.403 0 01.26-3.32 2.38 2.38 0 011.496-.595l.728-.05s2.471-.107 2.256-3.029c0 0-.215-2.596-4.082-1.837" fill="#fff"/></svg>