<svg width="40" height="40" fill="none" xmlns="http://www.w3.org/2000/svg"><path d="M20 40c11.046 0 20-8.954 20-20S31.046 0 20 0 0 8.954 0 20s8.954 20 20 20z" fill="#F9C011"/><path d="M18.515 7.5c1.898 1.109 3.683 2.393 5.563 3.531l-6.93 12.089c-.92-1.614-1.783-3.26-2.692-4.883 1.309-3.593 2.804-7.124 4.059-10.737zm-6.015 25c3.924-7.136 8-14.194 11.88-21.349 1.038 1.822 2.076 3.642 3.12 5.463-3.008 5.29-6.038 10.567-9.021 15.869-1.994 0-3.985-.025-5.979.017zm6.352-.029c1.663-2.843 3.23-5.737 4.913-8.568 1.004 1.283 2.023 2.56 3.019 3.85a767.473 767.473 0 01-7.931 4.718z" fill="#fff"/></svg>