<svg width="40" height="40" fill="none" xmlns="http://www.w3.org/2000/svg"><path d="M20 40c11.046 0 20-8.954 20-20S31.046 0 20 0 0 8.954 0 20s8.954 20 20 20z" fill="#FA5836"/><path d="M18.421 5.627c-.135.02-.656.117-1.157.193-2.798.472-5.381 1.842-7.523 3.992-2.15 2.142-3.462 4.62-4.012 7.572-.25 1.341-.25 3.963 0 5.305.55 2.95 1.862 5.428 4.012 7.57 2.142 2.15 4.619 3.462 7.57 4.012 1.341.25 3.964.25 5.305 0 2.95-.55 5.43-1.862 7.572-4.012 2.15-2.142 3.462-4.619 4.012-7.57.25-1.341.25-3.964 0-5.305-.55-2.95-1.863-5.43-4.013-7.572-2.093-2.102-4.456-3.385-7.32-3.962-.887-.184-3.838-.329-4.446-.223zm5.15 5.113c.115.047.154.191.154.578v.52h-.608c-.77 0-1.378.29-1.63.772-.163.309-.173.685-.173 5.256 0 2.7-.038 4.966-.076 5.034-.203.309-1.688.396-2.354.135l-.27-.106v-4.985c0-4.65-.01-5.025-.174-5.334-.25-.482-.859-.771-1.63-.771h-.607v-.521c0-.328.048-.54.125-.57.175-.077 7.06-.077 7.243-.01v.002zm-5.536 4.02v1.188l-.28.162c-.414.242-1.109.965-1.387 1.438-.17.31-.306.636-.407.975l-.154.55H14.7c-1.264 0-1.225.047-.955-1.013.337-1.284 1.157-2.586 2.15-3.376.55-.444 1.765-1.11 2.006-1.11.106 0 .135.251.135 1.187v-.001zm4.784-.848a6.466 6.466 0 013.366 4.147c.27 1.061.309 1.012-.955 1.012h-1.109l-.155-.55a5.017 5.017 0 00-.405-.974c-.28-.472-.975-1.195-1.389-1.437l-.28-.162V14.76c0-.935.03-1.186.136-1.186.067 0 .425.155.79.337v.002zm-7.001 6.067c0 .452.298 1.379.607 1.861 1.649 2.613 5.429 2.613 7.079 0 .308-.482.607-1.409.607-1.863v-.327h2.305l-.049.501c-.24 2.344-1.533 4.235-3.558 5.238-.935.462-1.755.656-2.845.656-3.375 0-6.046-2.46-6.404-5.894l-.048-.5h2.306v.328zm5.545 6.972c.125.675.82 1.09 1.86 1.09h.502v1.06h-7.523V28.07l.704-.048c.454-.029.82-.115 1.023-.231.3-.174.685-.752.685-1.023 0-.096.308-.125 1.34-.125h1.35l.059.31z" fill="#FEFFFF"/></svg>